<?xml version="1.0" encoding="utf-8"?>
<!-- Uploaded to: SVG Repo, www.svgrepo.com, Generator: SVG Repo Mixer Tools -->
<svg width="800px" height="800px" viewBox="0 0 1024 1024" class="icon"  version="1.1" xmlns="http://www.w3.org/2000/svg"><path d="M826.806857 546.084571H341.650286c-14.701714 0-26.624-13.677714-26.624-30.500571 0-16.822857 11.922286-30.500571 26.624-30.500571h491.373714l-40.448-36.132572-11.410286-11.629714a31.744 31.744 0 0 1-0.292571-44.178286 30.061714 30.061714 0 0 1 42.861714-0.438857l98.596572 93.549714a36.571429 36.571429 0 0 1 0.950857 52.077715c-65.097143 66.779429-97.792 100.205714-98.011429 100.352a30.72 30.72 0 0 1-43.373714-1.024 34.304 34.304 0 0 1-0.512-46.811429l11.190857-12.288 34.230857-32.475429z m9.654857-269.677714a33.645714 33.645714 0 0 1-45.202285-8.192 395.044571 395.044571 0 0 0-314.733715-155.867428 395.702857 395.702857 0 1 0 322.121143 625.371428 33.718857 33.718857 0 0 1 45.056-9.581714 30.793143 30.793143 0 0 1 9.508572 43.885714 435.2 435.2 0 0 1-19.236572 26.112 460.361143 460.361143 0 1 1 10.605714-566.564571 31.158857 31.158857 0 0 1-8.045714 44.836571z" fill="#000000" /></svg>