<?xml version="1.0" encoding="utf-8"?>
<!-- Uploaded to: SVG Repo, www.svgrepo.com, Generator: SVG Repo Mixer Tools -->
<svg width="800px" height="800px" viewBox="0 0 1024 1024" class="icon"  version="1.1" xmlns="http://www.w3.org/2000/svg"><path d="M143.04 839.552c43.584 0 79.104-35.52 79.104-79.104v-448a79.168 79.168 0 0 0-158.08 0l-0.064 448c0 43.584 35.456 79.104 79.04 79.104z m-26.368-527.104a26.368 26.368 0 0 1 52.736 0v448a26.368 26.368 0 0 1-52.736 0v-448z m263.552 527.104c43.584 0 79.04-35.52 79.04-79.104V523.264c0-43.52-35.456-79.04-79.04-79.04s-79.04 35.456-79.04 79.04v237.184c0 43.584 35.456 79.104 79.04 79.104zM353.92 523.264a26.368 26.368 0 0 1 52.736 0v237.184a26.368 26.368 0 0 1-52.736 0V523.264z m500.736 316.288c43.584 0 79.04-35.52 79.04-79.104v-158.08c0-43.584-35.456-79.104-79.04-79.104s-79.04 35.52-79.04 79.104v158.08c0 43.584 35.456 79.104 79.04 79.104z m-26.368-237.184a26.368 26.368 0 0 1 52.736 0v158.08a26.368 26.368 0 0 1-52.736 0v-158.08z m-210.816 237.184c43.584 0 79.04-35.52 79.04-79.104V207.04c0-43.52-35.456-79.04-79.04-79.04s-79.04 35.456-79.04 79.04v553.408c0 43.584 35.456 79.104 79.04 79.104z m-26.368-632.512a26.368 26.368 0 0 1 52.736 0v553.408a26.368 26.368 0 0 1-52.736 0V207.04zM64 892.224h896v52.736H64v-52.736z" fill="#000000" /></svg>