<?xml version="1.0" encoding="utf-8"?>
<!-- Uploaded to: SVG Repo, www.svgrepo.com, Generator: SVG Repo Mixer Tools -->
<svg width="800px" height="800px" viewBox="0 0 1024 1024" class="icon"  version="1.1" xmlns="http://www.w3.org/2000/svg"><path d="M902.948571 369.371429l82.358858 19.456a21.942857 21.942857 0 0 1 16.896 21.357714v187.465143a21.942857 21.942857 0 0 1-17.554286 21.504l-80.749714 16.310857a21.942857 21.942857 0 0 0-13.750858 33.792l43.154286 64a21.942857 21.942857 0 0 1-2.779428 27.940571l-135.753143 132.681143a21.942857 21.942857 0 0 1-26.989715 2.925714l-78.555428-49.298285a21.942857 21.942857 0 0 0-33.133714 14.043428l-16.822858 78.774857a21.942857 21.942857 0 0 1-21.357714 17.334858h-191.634286a21.942857 21.942857 0 0 1-21.211428-16.530286l-20.845714-81.481143a21.942857 21.942857 0 0 0-33.133715-13.019429l-69.924571 45.202286a21.942857 21.942857 0 0 1-27.355429-2.779428l-135.533714-133.266286a21.942857 21.942857 0 0 1-2.925714-27.721143l48.859428-74.459429a21.942857 21.942857 0 0 0-13.897143-33.499428L68.900571 603.136a21.942857 21.942857 0 0 1-17.481142-21.504v-186.514286a21.942857 21.942857 0 0 1 17.408-21.430857l86.820571-18.578286a21.942857 21.942857 0 0 0 13.750857-33.645714l-43.008-64.804571a21.942857 21.942857 0 0 1 2.779429-27.648l135.021714-134.436572a21.942857 21.942857 0 0 1 26.843429-3.218285l72.630857 44.178285a21.942857 21.942857 0 0 0 32.694857-13.458285L415.158857 46.372571a21.942857 21.942857 0 0 1 21.284572-16.603428l191.634285 0.438857a21.942857 21.942857 0 0 1 21.430857 17.773714l16.603429 84.553143a21.942857 21.942857 0 0 0 33.206857 14.409143l71.533714-45.056a21.942857 21.942857 0 0 1 26.916572 2.779429l136.923428 131.803428a21.942857 21.942857 0 0 1 2.925715 28.013714l-47.835429 71.314286a21.942857 21.942857 0 0 0 13.165714 33.645714zM526.774857 294.765714a198.729143 198.729143 0 0 1 194.121143 241.298286 31.524571 31.524571 0 0 1-61.659429-13.458286 135.899429 135.899429 0 0 0-132.388571-164.790857 135.606857 135.606857 0 1 0 54.930286 259.657143 31.524571 31.524571 0 1 1 25.6 57.636571 198.729143 198.729143 0 1 1-80.603429-380.342857z m274.724572 330.020572l13.824-26.112a21.942857 21.942857 0 0 1 15.067428-11.264l87.478857-17.627429a21.942857 21.942857 0 0 0 17.627429-21.504V457.874286a21.942857 21.942857 0 0 0-16.310857-21.211429l-87.259429-23.186286a21.942857 21.942857 0 0 1-15.213714-14.336l-9.728-29.769142a21.942857 21.942857 0 0 1 2.340571-18.578286l46.665143-73.289143a21.942857 21.942857 0 0 0-3.364571-27.648l-67.291429-64.658286a21.942857 21.942857 0 0 0-26.331428-3.072l-75.410286 44.470857a21.942857 21.942857 0 0 1-20.845714 0.804572l-32.841143-16.091429a21.942857 21.942857 0 0 1-11.776-15.140571L600.502857 113.371429a21.942857 21.942857 0 0 0-21.504-17.408H483.474286a21.942857 21.942857 0 0 0-21.138286 16.091428l-24.137143 86.893714a21.942857 21.942857 0 0 1-13.824 14.848l-24.502857 8.557715a21.942857 21.942857 0 0 1-18.797714-1.974857l-77.238857-47.542858a21.942857 21.942857 0 0 0-26.916572 2.998858l-65.682286 65.024a21.942857 21.942857 0 0 0-2.706285 27.867428l45.056 66.413714a21.942857 21.942857 0 0 1 1.316571 22.454858l-16.822857 32.329142a21.942857 21.942857 0 0 1-14.409143 11.190858l-88.649143 20.918857a21.942857 21.942857 0 0 0-16.969143 21.357714V533.211429a21.942857 21.942857 0 0 0 17.554286 21.504l83.968 17.554285a21.942857 21.942857 0 0 1 16.237714 14.262857l11.337143 32.768a21.942857 21.942857 0 0 1-2.121143 18.870858l-48.713142 77.677714a21.942857 21.942857 0 0 0 3.291428 27.355428l66.267429 64.585143a21.942857 21.942857 0 0 0 27.062857 2.779429l77.385143-49.225143a21.942857 21.942857 0 0 1 21.723428-1.024l27.648 14.116571a21.942857 21.942857 0 0 1 11.410286 14.262858l21.284571 86.162285a21.942857 21.942857 0 0 0 21.284572 16.676572h95.670857a21.942857 21.942857 0 0 0 21.357714-16.822857l20.772572-84.845715a21.942857 21.942857 0 0 1 13.238857-15.213714l27.940571-11.044571a21.942857 21.942857 0 0 1 19.675429 1.755428l82.139428 50.980572a21.942857 21.942857 0 0 0 26.916572-2.925715l66.194286-64.512a21.942857 21.942857 0 0 0 3.072-27.648l-48.128-74.386285a21.942857 21.942857 0 0 1-1.024-22.162286z" fill="#000000" /></svg>